<?xml version="1.0" encoding="UTF-8" standalone="no"?>
<!-- Created with Inkscape (http://www.inkscape.org/) -->

<svg
   xmlns:dc="http://purl.org/dc/elements/1.1/"
   xmlns:cc="http://creativecommons.org/ns#"
   xmlns:rdf="http://www.w3.org/1999/02/22-rdf-syntax-ns#"
   xmlns:svg="http://www.w3.org/2000/svg"
   xmlns="http://www.w3.org/2000/svg"
   xmlns:sodipodi="http://sodipodi.sourceforge.net/DTD/sodipodi-0.dtd"
   xmlns:inkscape="http://www.inkscape.org/namespaces/inkscape"
   width="124.58276"
   height="101.9593"
   viewBox="0 0 124.58276 101.9593"
   id="svg2"
   version="1.1"
   inkscape:version="0.91 r13725"
   sodipodi:docname="logo_icon.svg"
   inkscape:export-filename="/home/aneudy/Documents/Projects/CDD/final_logos/logo.png"
   inkscape:export-xdpi="89.807098"
   inkscape:export-ydpi="89.807098">
  <defs
     id="defs4" />
  <sodipodi:namedview
     id="base"
     pagecolor="#ffffff"
     bordercolor="#666666"
     borderopacity="1.0"
     inkscape:pageopacity="0.0"
     inkscape:pageshadow="2"
     inkscape:zoom="1.78"
     inkscape:cx="232.04084"
     inkscape:cy="10.748335"
     inkscape:document-units="px"
     inkscape:current-layer="g4157"
     showgrid="true"
     inkscape:window-width="1366"
     inkscape:window-height="671"
     inkscape:window-x="0"
     inkscape:window-y="27"
     inkscape:window-maximized="1"
     fit-margin-top="2.5"
     fit-margin-left="2.5"
     fit-margin-right="2.5"
     fit-margin-bottom="2.5"
     showguides="true"
     units="px">
    <inkscape:grid
       type="xygrid"
       id="grid4873"
       originx="-118.17018"
       originy="-178.54418" />
  </sodipodi:namedview>
  <metadata
     id="metadata7">
    <rdf:RDF>
      <cc:Work
         rdf:about="">
        <dc:format>image/svg+xml</dc:format>
        <dc:type
           rdf:resource="http://purl.org/dc/dcmitype/StillImage" />
        <dc:title></dc:title>
      </cc:Work>
    </rdf:RDF>
  </metadata>
  <g
     inkscape:label="Layer 1"
     inkscape:groupmode="layer"
     id="layer1"
     transform="translate(-138.73268,-420.08833)">
    <g
       id="g4157">
      <g
         transform="matrix(0.99420874,0,0,0.96959276,120.78926,-159.7411)"
         id="g4710">
        <path
           style="fill:#b9cec6"
           d="m 20.563861,600.5918 0.159947,6.32708 0.159947,6.32708 24.396626,0.30867 c 21.144746,0.2675 23.998741,0.41139 21.409709,1.08014 -2.117104,0.54686 -9.264437,0.77183 -24.537176,0.77183 l -21.549577,0 0,34.88198 0,34.88232 29.023509,-0.15995 29.023849,-0.15994 0.147696,-20.52456 0.148034,-20.52489 8.0916,0 c 5.096486,0 8.227299,0.24215 8.458794,0.65442 0.202151,0.35999 0.06047,1.47127 -0.315129,2.4693 l -0.683006,1.81454 -4.979445,0 -4.979445,0 0,4.09838 0,4.09838 2.765715,-0.36073 c 3.874341,-0.50504 7.058988,-2.47485 8.870913,-5.48719 1.428805,-2.3754 1.542974,-3.0285 1.542974,-8.82702 0,-5.75978 -0.120894,-6.46251 -1.505539,-8.76745 -2.594191,-4.31844 -5.419198,-5.36901 -15.179616,-5.64374 l -8.272646,-0.23277 0,14.57352 0,14.57352 1.682843,0 c 1.549,0 1.682502,0.17127 1.682502,2.1603 l 0,2.16064 -4.486673,0 -4.486673,0 0,-18.5698 0,-18.57015 12.47856,0.20895 c 11.233735,0.18797 12.730661,0.33745 15.002655,1.49703 5.669831,2.8938 8.719651,7.86943 9.345651,15.24768 0.31101,3.66576 0.48536,4.13844 1.53174,4.15045 3.34323,0.0384 9.62342,5.07589 11.57367,9.28337 2.42228,5.22589 2.43026,14.44161 0.017,19.63566 -2.31452,4.98156 -6.52789,8.34424 -12.04841,9.61552 -2.09077,0.48147 -3.9446,1.03299 -4.11948,1.22546 -0.17488,0.19248 8.68377,0.34984 19.68569,0.34984 l 20.00354,0 0,-34.87653 0,-34.87654 -22.85467,-0.0272 c -17.71635,-0.0211 -23.484737,-0.22013 -25.658508,-0.88447 -2.503322,-0.76506 -0.05071,-0.86124 22.854668,-0.89843 l 25.65851,-0.0419 0,-6.48159 0,-6.48124 -60.030357,0 -60.030015,0 z m 83.153539,48.79632 c -0.4066,-0.0234 -0.57978,0.2601 -0.88481,0.82968 -3.372225,6.29672 -7.692468,9.42678 -13.990573,10.13619 l -3.754321,0.42301 -0.208612,9.38274 c -0.114777,5.16051 -0.04868,9.5616 0.146675,9.78023 0.195347,0.21863 4.267004,0.28319 9.048216,0.14361 10.021105,-0.29255 12.365765,-1.03636 15.346025,-4.86851 2.30244,-2.96057 3.16184,-5.99854 3.16184,-11.17686 0,-6.87753 -2.11757,-11.26743 -6.57857,-13.63767 -1.23925,-0.65844 -1.87928,-0.98902 -2.28587,-1.01242 z m -83.114063,38.24085 0,6.48125 0,6.48158 59.977267,0 c 32.987576,0 60.069686,-0.2082 60.182476,-0.46282 0.11279,-0.25463 0.10326,-3.1714 -0.0211,-6.48159 l -0.22631,-6.01842 -59.956165,0 -59.956168,0 z"
           id="path3439"
           inkscape:connector-curvature="0"
           inkscape:export-xdpi="42.96357"
           inkscape:export-ydpi="42.96357" />
        <path
           style="fill:#abc7ab"
           d="m 20.603337,600.94028 0,6.17258 0,6.17292 26.219338,0.0633 c 24.938319,0.0602 26.054975,0.11058 22.854333,1.03216 -2.671002,0.76908 -8.049856,1.04239 -26.079129,1.32552 l -22.714124,0.35699 -0.144973,34.41337 -0.144973,34.41371 28.888064,0 28.888404,0 0.09937,-6.01842 c 0.05452,-3.31019 0.02062,-12.47687 -0.07521,-20.3704 l -0.174581,-14.35198 9.890148,0 9.889807,0 0,-2.7977 c 0,-5.13427 -2.259351,-9.18272 -6.449594,-11.55631 -1.87189,-1.06035 -3.613382,-1.31962 -10.515979,-1.5668 l -8.272646,-0.29641 0,14.59019 0,14.5902 1.682843,0 c 1.549,0 1.682502,0.17127 1.682502,2.1603 l 0,2.16064 -4.486673,0 -4.486673,0 0,-18.56096 0,-18.56095 12.47856,0.1967 c 11.750469,0.18527 12.651898,0.28279 15.444379,1.67161 3.318828,1.6506 7.01628,5.83562 7.97215,9.02337 0.33991,1.13357 0.79446,3.78997 1.00971,5.90305 l 0.39102,3.84213 2.60066,0.83342 c 4.56309,1.46235 7.81622,4.43586 10.01879,9.15814 1.80298,3.86556 1.96123,4.64104 1.94284,9.5175 -0.0157,4.15022 -0.29495,5.97568 -1.2789,8.36181 -2.58084,6.2587 -5.83304,9.28843 -11.89458,11.08124 -2.87459,0.8502 -1.86041,0.9111 15.85718,0.94913 l 18.92883,0.0405 0,-34.56788 0,-34.56787 -23.13509,-0.0357 c -20.837179,-0.032 -23.524587,-0.15107 -27.060591,-1.19892 l -3.926179,-1.16353 27.06093,-0.0354 27.06093,-0.0357 0,-6.17292 0,-6.17258 -60.010619,0 -60.010277,0 z m 64.497291,48.14802 0,4.06673 0,4.06639 2.383544,-0.41552 c 3.607143,-0.62901 6.975453,-2.63027 8.251205,-4.9022 0.628561,-1.11938 1.142769,-2.21084 1.142769,-2.4254 0,-0.21456 -2.650214,-0.39 -5.889099,-0.39 l -5.888419,0 z m 18.687212,0.61733 c -0.39468,0 -1.20429,1.04165 -1.79923,2.3148 -1.95527,4.18413 -6.448817,7.66676 -10.884879,8.43599 -1.142397,0.1981 -2.960896,0.51183 -4.040524,0.69696 l -1.962579,0.33657 0,9.61518 0,9.61483 8.552722,-0.31921 c 9.36788,-0.34981 11.85165,-0.92181 14.44897,-3.32723 4.80051,-4.44586 6.03578,-15.5028 2.41791,-21.64385 -1.42575,-2.42009 -5.31182,-5.72404 -6.73239,-5.72404 z m -83.184503,38.27182 0,6.17258 0,6.17292 59.916692,0 c 32.954371,0 60.022331,-0.11458 60.150821,-0.25455 0.12856,-0.13997 0.15342,-2.91782 0.0551,-6.17292 l -0.17866,-5.91803 -59.972161,0 -59.971822,0 z"
           id="path3437"
           inkscape:connector-curvature="0"
           inkscape:export-xdpi="42.96357"
           inkscape:export-ydpi="42.96357" />
        <path
           style="fill:#94aba3"
           d="m 20.603337,600.94028 0,6.17258 0,6.17292 27.06059,0.0841 c 14.883449,0.0462 26.429667,0.19336 25.658503,0.32703 -0.771165,0.13368 -3.218705,0.66728 -5.439208,1.18565 -3.156799,0.73695 -8.721849,0.96851 -25.518293,1.06178 l -21.481174,0.11945 -0.144973,34.41337 -0.144973,34.41371 28.888064,0 28.888404,0 0,-20.3704 0,-20.3704 9.814938,0 9.814599,0 -0.01225,-2.93212 c -0.01406,-3.34575 -1.459641,-7.23939 -3.426602,-9.22961 -2.654607,-2.68599 -5.367584,-3.42266 -13.807139,-3.74887 l -7.992227,-0.30901 0,14.59122 0,14.59156 1.682842,0 c 1.549,0 1.682503,0.17127 1.682503,2.1603 l 0,2.16064 -4.775598,0 -4.775597,0 0.148715,-18.67292 0.148717,-18.67292 7.289823,-0.1739 c 10.641278,-0.25385 17.966709,0.62031 21.442378,2.55881 5.219851,2.91128 8.563951,8.98591 8.563951,15.55736 0,2.57449 0.0223,2.60269 2.86203,3.625 6.13177,2.20743 9.87485,6.48922 11.43448,13.07956 1.0632,4.49277 1.06605,7.0666 0.0122,11.51956 -1.7617,7.44427 -5.92099,11.88219 -12.90702,13.77242 -2.39789,0.64881 -0.0614,0.76643 16.12433,0.81131 l 18.92883,0.0524 0,-34.58625 0,-34.58625 -22.94451,0.0572 c -16.10103,0.04 -23.670483,-0.16147 -25.378431,-0.67518 -1.338634,-0.40262 -3.695756,-0.94088 -5.238083,-1.19619 -1.542326,-0.25532 9.878045,-0.49909 25.378424,-0.54144 l 28.1826,-0.0769 0,-6.17292 0,-6.17258 -60.010617,0 -60.010277,0 z m 64.497291,48.14802 0,4.08102 0,4.08102 2.103128,-0.40803 c 4.028249,-0.78194 5.687136,-1.66547 7.674376,-4.08647 1.099975,-1.34006 2.000014,-2.71338 2.000014,-3.05191 0,-0.37008 -2.348419,-0.61563 -5.889099,-0.61563 l -5.888419,0 z m 18.256712,0.61733 c -0.15786,0 -0.7885,1.08139 -1.40106,2.40294 -2.274721,4.90752 -7.099843,7.97133 -14.19169,9.01078 l -2.663962,0.39034 0,9.61279 0,9.6128 8.552722,-0.32568 c 4.704095,-0.17902 9.43635,-0.67119 10.51598,-1.09377 5.20743,-2.03826 7.87501,-6.30589 8.28319,-13.25209 0.32851,-5.59037 -0.5559,-9.03193 -3.12576,-12.16649 -1.7118,-2.08795 -4.70767,-4.19162 -5.96942,-4.19162 z m -82.754003,38.27182 0,6.17258 0,6.17292 60.010277,0 60.010616,0 0,-6.17292 0,-6.17258 -60.010616,0 -60.010277,0 z"
           id="path3435"
           inkscape:connector-curvature="0"
           inkscape:export-xdpi="42.96357"
           inkscape:export-ydpi="42.96357" />
        <path
           style="fill:#e7a51f"
           d="m 20.603337,600.94028 0,6.17258 0,6.17292 27.06059,0.0558 c 24.165916,0.0498 26.625077,0.14264 22.987054,0.86847 -2.240608,0.44704 -4.865417,1.11641 -5.832608,1.48751 -1.152319,0.44212 -9.076564,0.67484 -22.987053,0.67484 l -21.227983,0 0,34.25921 0,34.25921 28.8833,0 28.88364,0 0,-20.3704 0,-20.3704 9.814938,0 9.814599,0 -0.01225,-2.93212 c -0.02278,-5.4219 -3.07136,-10.25264 -7.481079,-11.85443 -1.052359,-0.38226 -5.412182,-0.75328 -9.688683,-0.82458 l -7.775788,-0.12966 -0.150419,14.35198 -0.150758,14.35198 1.693393,0 c 1.560817,0 1.692711,0.16834 1.692711,2.1603 l 0,2.16064 -4.775598,0 -4.775597,0 0.148715,-18.67292 0.148717,-18.67292 11.4971,0.0402 c 14.314549,0.0498 16.584232,0.63187 21.019031,5.39122 3.254891,3.49311 4.780021,7.49324 4.780021,12.53812 l 0,2.6221 3.03627,0.97125 c 4.30545,1.37758 8.26627,5.02627 10.22671,9.42052 1.42226,3.18793 1.59769,4.23334 1.58551,9.44876 -0.0108,4.60625 -0.26402,6.46698 -1.18088,8.67353 -2.30468,5.54651 -6.84843,9.58576 -12.40369,11.02679 -1.37134,0.35572 4.39683,0.56777 16.54291,0.60814 l 18.64807,0.0619 0,-34.25921 0,-34.25921 -22.2074,0 c -18.90478,0 -22.676938,-0.15026 -25.365152,-1.01039 -1.736799,-0.55571 -4.425642,-1.2157 -5.975198,-1.4664 -1.549561,-0.2507 9.864773,-0.49058 25.36516,-0.53293 l 28.18259,-0.0769 0,-6.17292 0,-6.17258 -60.010616,0 -60.010276,0 z m 64.497291,48.14802 0,4.04053 0,4.04018 2.103128,-0.38864 c 4.052405,-0.74874 5.690837,-1.60804 7.674376,-4.02453 1.099975,-1.34006 2.000014,-2.71338 2.000014,-3.05191 0,-0.37008 -2.348419,-0.61563 -5.889099,-0.61563 l -5.888419,0 z m 18.485402,0.66565 c -0.11635,-0.005 -0.19838,0.0233 -0.23855,0.0888 -0.0579,0.0944 -0.65952,1.18643 -1.33675,2.42677 -2.841669,5.20448 -6.949976,7.76944 -14.24614,8.89405 l -2.663962,0.41076 0,9.59067 0,9.59067 8.552722,-0.37604 c 9.88596,-0.43495 12.24794,-1.09879 15.10747,-4.24607 5.15056,-5.66887 5.07793,-17.80585 -0.13749,-22.99182 -1.71903,-1.70933 -4.22283,-3.3543 -5.0373,-3.38781 z m -82.982693,38.2235 0,6.17258 0,6.17292 60.010277,0 60.010616,0 0,-6.17292 0,-6.17258 -60.010616,0 -60.010277,0 z"
           id="path3433"
           inkscape:connector-curvature="0"
           inkscape:export-xdpi="42.96357"
           inkscape:export-ydpi="42.96357" />
        <path
           style="fill:#6f998a"
           d="m 20.603337,600.94028 0,6.17258 0,6.17292 60.010277,0 60.010616,0 0,-6.17292 0,-6.17258 -60.010616,0 -60.010277,0 z m 120.020893,15.43179 -22.29384,0.032 c -20.712941,0.0296 -22.144415,0.0996 -20.190367,0.99167 2.087017,0.95275 2.103127,0.98779 2.103127,4.52683 l 0,3.56647 -3.505213,-2.02146 c -1.927909,-1.11184 -5.210416,-2.48218 -7.294587,-3.04511 -4.968673,-1.34203 -15.771479,-1.38455 -20.190711,-0.0793 -18.157116,5.36285 -25.247401,25.15438 -13.260937,37.01573 3.430751,3.39494 8.188515,6.0771 13.400804,7.55493 l 3.929924,1.11452 0,3.25849 c 0,3.84232 0.130631,3.80204 -6.581293,2.03098 -12.905586,-3.40538 -23.019095,-13.35153 -24.887358,-24.4749 -1.755547,-10.45229 4.637081,-21.74663 15.765634,-27.85419 l 4.766751,-2.61598 -20.891413,-3.5e-4 -20.891414,0 0,34.25921 0,34.25921 28.8833,0 28.88364,0 0,-20.3704 0,-20.37039 9.814938,0 9.814599,0 -0.01225,-2.93213 c -0.02278,-5.4219 -3.07136,-10.25264 -7.481079,-11.85443 -1.052359,-0.38226 -5.412182,-0.75328 -9.688683,-0.82458 l -7.775788,-0.12966 -0.150419,14.35198 -0.150758,14.35198 1.693393,0 c 1.560817,0 1.692711,0.16834 1.692711,2.1603 l 0,2.16064 -4.775598,0 -4.775597,0 0.148715,-18.67292 0.148717,-18.67292 11.4971,0.0402 c 14.314549,0.0498 16.584232,0.63168 21.019031,5.39088 3.254891,3.49311 4.780021,7.49358 4.780021,12.53846 l 0,2.62176 3.03627,0.97159 c 4.30545,1.37758 8.26627,5.02627 10.22671,9.42052 1.42226,3.18793 1.59769,4.23334 1.58551,9.44876 -0.0108,4.60625 -0.26402,6.46665 -1.18088,8.67319 -2.30468,5.54652 -6.84843,9.58576 -12.40369,11.02679 -1.37134,0.35572 4.39683,0.56777 16.54291,0.60814 l 18.64807,0.0623 0,-34.25955 0,-34.25921 z m -55.523602,32.71623 0,4.04053 0,4.04018 2.103128,-0.38864 c 4.052405,-0.74874 5.690837,-1.60804 7.674376,-4.02453 1.099975,-1.34006 2.000014,-2.71338 2.000014,-3.05191 0,-0.37008 -2.348419,-0.61563 -5.889099,-0.61563 l -5.888419,0 z m 18.485402,0.66565 c -0.11635,-0.005 -0.19838,0.0233 -0.23855,0.0888 -0.0579,0.0944 -0.65952,1.18643 -1.33675,2.42677 -2.841669,5.20448 -6.949976,7.76944 -14.24614,8.89405 -2.580232,0.39772 -2.663962,0.47629 -2.663962,2.50095 0,2.70832 0.375064,2.69138 8.412513,-0.37876 3.547349,-1.35502 6.525199,-2.46502 6.617709,-2.46624 0.0925,-0.002 0.0925,1.59457 0,3.54673 l -0.168117,3.54911 -3.365005,1.3473 c -1.85079,0.74097 -5.195021,1.81048 -7.431393,2.37674 l -4.065707,1.02978 0,4.04325 0,4.04324 8.552722,-0.37604 c 9.88596,-0.43495 12.24794,-1.09879 15.10747,-4.24607 5.15056,-5.66887 5.07793,-17.80585 -0.13749,-22.99182 -1.71903,-1.70933 -4.22283,-3.3543 -5.0373,-3.38781 z m -82.982693,38.2235 0,6.17258 0,6.17292 60.010277,0 60.010616,0 0,-6.17292 0,-6.17258 -60.010616,0 -60.010277,0 z"
           id="path3431"
           inkscape:connector-curvature="0"
           inkscape:export-xdpi="42.96357"
           inkscape:export-ydpi="42.96357" />
        <path
           style="fill:#83c024"
           d="m 20.603337,600.94028 0,6.17258 0,6.17292 60.010277,0 60.010616,0 0,-6.17292 0,-6.17258 -60.010616,0 -60.010277,0 z m 120.020893,15.43179 -22.29384,0.032 c -20.712941,0.0296 -22.144415,0.0996 -20.190367,0.99167 2.087017,0.95275 2.103127,0.98779 2.103127,4.52683 l 0,3.56647 -3.505213,-2.02146 c -1.927909,-1.11184 -5.210416,-2.48218 -7.294587,-3.04511 -4.968673,-1.34203 -15.771479,-1.38455 -20.190711,-0.0793 -18.157116,5.36285 -25.247401,25.15438 -13.260937,37.01573 3.430751,3.39494 8.188515,6.0771 13.400804,7.55493 l 3.929924,1.11452 0,3.25849 c 0,3.84232 0.130631,3.80204 -6.581293,2.03098 -12.905586,-3.40538 -23.019095,-13.35153 -24.887358,-24.4749 -1.755547,-10.45229 4.637081,-21.74663 15.765634,-27.85419 l 4.766751,-2.61598 -20.891413,-3.5e-4 -20.891414,0 0,34.25921 0,34.25921 28.8833,0 28.88364,0 0,-20.3704 0,-20.37039 9.814938,0 9.814599,0 -0.0031,-2.31481 c -0.008,-5.89699 -3.169777,-11.08104 -7.58079,-12.42887 -1.226906,-0.37489 -5.701157,-0.68313 -9.942555,-0.68505 l -7.711811,-0.003 0,14.19748 0,14.19747 1.682842,0 c 1.549,0 1.682503,0.17162 1.682503,2.16065 l 0,2.1603 -4.775598,0 -4.775258,0 0.148717,-18.67292 0.148376,-18.67258 11.777517,0.0218 c 13.677501,0.0253 16.197123,0.62255 20.333642,4.81916 3.321891,3.37015 4.733801,6.61012 5.060101,11.61314 l 0.26817,4.10859 2.46113,0.75856 c 7.6822,2.36732 12.53812,9.76896 12.53812,19.1109 0,9.48762 -5.07344,17.11486 -12.89919,19.39165 -2.87697,0.83702 -1.82911,0.9 15.56349,0.9379 l 18.64808,0.0408 0,-34.25955 0,-34.25921 z m -55.523602,32.71623 0,3.92006 0,3.92039 2.750061,-0.47848 c 1.512619,-0.26317 3.501611,-0.90628 4.419973,-1.42897 1.712724,-0.97481 4.607484,-4.34425 4.607484,-5.36298 0,-0.31345 -2.650214,-0.57002 -5.889099,-0.57002 l -5.888419,0 z m 18.467712,0.72623 c -0.43659,-0.007 -0.59345,0.40548 -0.83206,1.23295 -0.21283,0.73805 -1.51886,2.67383 -2.902185,4.30154 -2.808513,3.30468 -6.325556,5.07119 -11.518539,5.78531 -3.200426,0.4401 -3.214928,0.45134 -3.214928,2.53124 0,2.70713 0.375618,2.69014 8.412513,-0.37979 3.547349,-1.35502 6.525199,-2.46502 6.617709,-2.46624 0.0925,-0.002 0.0925,1.59457 0,3.54673 l -0.168117,3.54911 -3.365005,1.3473 c -1.85079,0.74097 -5.195021,1.81048 -7.431393,2.37674 l -4.065707,1.02978 0,3.69375 0,3.69374 9.393972,-0.21201 c 8.46552,-0.19097 9.62978,-0.34973 11.77718,-1.6073 4.73073,-2.77041 7.14023,-9.9758 5.86323,-17.53355 -0.7422,-4.39259 -2.6901,-7.48009 -6.05619,-9.59918 -1.35774,-0.85475 -2.07389,-1.28266 -2.51048,-1.29012 z m 37.05589,38.15714 -59.870407,0.15722 -59.870068,0.15689 -0.160968,6.01875 -0.160287,6.01842 60.030696,0 60.031034,0 0,-6.17564 0,-6.17564 z"
           id="path3429"
           inkscape:connector-curvature="0"
           inkscape:export-xdpi="42.96357"
           inkscape:export-ydpi="42.96357" />
        <path
           style="fill:#5a8d6a"
           d="m 20.603337,600.94028 0,6.17258 0,6.17292 60.010277,0 60.010616,0 0,-6.17292 0,-6.17258 -60.010616,0 -60.010277,0 z m 0,15.43213 0,34.25921 0,34.25921 27.761632,0 27.761971,0 0,-10.80253 0,-10.80252 -5.188056,0.01 c -5.614701,0.0102 -5.794207,0.6263 -0.560834,1.92514 l 2.94438,0.73099 0,3.29661 c 0,3.88613 0.138522,3.84292 -6.581293,2.06977 C 53.835551,667.91291 43.722042,657.96677 41.853779,646.8434 40.098232,636.39111 46.49086,625.09676 57.619413,618.9892 l 4.766751,-2.61598 -20.891413,-3.5e-4 -20.891414,0 z m 120.020893,0 -22.29384,0.0317 c -20.712941,0.0296 -22.144415,0.0999 -20.190367,0.99201 2.087017,0.95275 2.103127,0.98745 2.103127,4.52649 l 0,3.56647 -3.505213,-2.02146 c -5.118925,-2.95212 -9.958535,-4.06783 -17.67002,-4.07319 -10.463978,-0.007 -17.347918,2.76848 -23.205534,9.35722 -9.577938,10.77341 -7.114517,25.26862 5.587582,32.87516 l 2.899118,1.73627 0,-17.48795 0,-17.48796 1.468447,-2.37776 1.468106,-2.3781 11.851705,0.29063 c 13.82243,0.33901 16.402415,1.04357 20.362228,5.56172 3.152571,3.59708 4.231331,6.22051 4.545551,11.05401 l 0.26748,4.11335 2.46114,0.75856 c 7.6822,2.36733 12.53811,9.76896 12.53811,19.1109 0,9.48763 -5.07344,17.11486 -12.89918,19.39166 -2.87698,0.83701 -1.82912,0.90034 15.56349,0.93824 l 18.64807,0.0405 0,-34.25921 0,-34.25921 z m -67.862635,12.3455 0,14.19747 0,14.19782 1.682843,0 1.682502,0 0,-4.28589 c 0,-3.24394 0.286179,-4.81955 1.17714,-6.48158 l 1.176799,-2.1957 9.759468,0 9.759467,0 -0.0031,-2.3148 c -0.008,-5.89699 -3.169777,-11.08104 -7.58079,-12.42887 -1.226906,-0.3749 -5.701157,-0.68313 -9.942555,-0.68505 l -7.711811,-0.003 z m 12.339033,20.37039 0,3.92006 0,3.92039 2.750061,-0.47848 c 1.512619,-0.26317 3.501611,-0.90628 4.419973,-1.42897 1.712724,-0.97481 4.607484,-4.34425 4.607484,-5.36298 0,-0.31345 -2.650214,-0.57002 -5.889099,-0.57002 l -5.888419,0 z m 18.467712,0.72623 c -0.43659,-0.007 -0.59345,0.40548 -0.83206,1.23295 -0.21283,0.73805 -1.51886,2.67383 -2.902185,4.30154 -2.808513,3.30468 -6.325556,5.07119 -11.518539,5.78531 -3.200426,0.4401 -3.214928,0.45134 -3.214928,2.53124 0,2.70713 0.375618,2.69014 8.412513,-0.37979 3.547349,-1.35502 6.525199,-2.46502 6.617709,-2.46624 0.0925,-0.002 0.0925,1.59457 0,3.54673 l -0.168117,3.54911 -3.365005,1.3473 c -1.85079,0.74097 -5.195021,1.81048 -7.431393,2.37674 l -4.065707,1.02978 0,3.69375 0,3.69374 9.393972,-0.21201 c 8.46552,-0.19097 9.62978,-0.34973 11.77718,-1.6073 4.73073,-2.77041 7.14023,-9.9758 5.86323,-17.53355 -0.7422,-4.39259 -2.6901,-7.48009 -6.05619,-9.59918 -1.35774,-0.85475 -2.07389,-1.28266 -2.51048,-1.29012 z m 37.05589,38.15714 -59.870407,0.15722 -59.870068,0.15689 -0.160968,6.01875 -0.160287,6.01842 60.030696,0 60.031034,0 0,-6.17564 0,-6.17564 z"
           id="path3427"
           inkscape:connector-curvature="0"
           inkscape:export-xdpi="42.96357"
           inkscape:export-ydpi="42.96357" />
        <path
           style="fill:#507467"
           d="m 21.164172,600.94028 0,6.17258 0,6.17292 59.730199,0 59.729859,0 0,-6.17292 0,-6.17258 -59.729859,0 -59.730199,0 z m 0,15.43213 0,34.25921 0,34.25921 27.481554,0 27.481214,0 0,-10.80253 0,-10.80252 -5.188056,0.01 c -5.614701,0.0102 -5.794207,0.6263 -0.560834,1.92514 l 2.94438,0.73099 0,3.29661 c 0,3.88613 0.138522,3.84292 -6.581293,2.06977 C 53.835551,667.91291 43.722042,657.96677 41.853779,646.8434 40.098232,636.39111 46.49086,625.09676 57.619413,618.9892 l 4.766751,-2.61598 -20.610997,-3.5e-4 -20.610995,0 z m 119.460058,0 -22.29384,0.0317 c -20.712941,0.0296 -22.144417,0.0999 -20.190367,0.99201 2.087017,0.95275 2.103127,0.98745 2.103127,4.52649 l 0,3.56647 -3.505213,-2.02146 c -5.118925,-2.95212 -9.958535,-4.06783 -17.67002,-4.07319 -10.463978,-0.007 -17.347918,2.76848 -23.205534,9.35722 -9.577938,10.77341 -7.114519,25.26862 5.587582,32.87516 l 2.899118,1.73627 0,-17.35455 c 0,-16.84955 0.03669,-17.42676 1.261877,-19.83917 l 1.262217,-2.48496 12.057934,0.24877 c 10.468247,0.21571 12.437595,0.41368 14.936294,1.5035 6.381025,2.78308 9.695675,7.69296 10.175325,15.07139 0.26728,4.11143 0.30864,4.20507 2.02248,4.61191 4.77706,1.13403 9.647,5.44708 11.63118,10.30091 1.90839,4.66834 1.90385,13.54143 -0.009,18.22268 -1.83289,4.48515 -5.9288,8.43244 -10.35093,9.97523 l -3.44736,1.20266 18.36766,0.0347 18.36766,0.0347 0,-34.25921 0,-34.25921 z m -67.862635,12.23694 0,13.84048 c 0,7.61215 0.168699,14.02525 0.374344,14.25159 0.20564,0.22634 0.962408,0.41178 1.682163,0.41178 1.245298,0 1.308838,-0.20762 1.308838,-4.28589 0,-3.24394 0.286179,-4.81955 1.17714,-6.48158 l 1.176799,-2.1957 9.838079,0 9.83774,0 -0.321936,-3.4334 c -0.42392,-4.52076 -1.923769,-7.57019 -4.838895,-9.83808 -2.368683,-1.84277 -2.424158,-1.85306 -11.307206,-2.06059 l -8.927066,-0.20861 z m 12.339033,20.47895 0,3.70362 0,3.70395 2.103128,-0.0136 c 2.931627,-0.0189 6.448632,-1.92946 8.197435,-4.45298 0.812469,-1.17239 1.476955,-2.31376 1.476955,-2.53634 0,-0.22259 -2.650214,-0.40464 -5.889099,-0.40464 l -5.888419,0 z m 18.374462,0.97534 c -0.43564,0.0278 -0.60373,0.47091 -0.98452,1.48274 -0.92612,2.46085 -4.090138,5.93384 -6.78446,7.4467 -1.226883,0.68889 -4.115173,1.58275 -6.418283,1.98606 l -4.187199,0.73338 0,2.02111 c 0,2.62982 0.413086,2.60777 8.412513,-0.44785 3.547349,-1.35502 6.525199,-2.46502 6.617709,-2.46624 0.0925,-0.002 0.0925,1.59457 0,3.54673 l -0.168117,3.54911 -3.365005,1.3473 c -1.85079,0.74097 -5.195021,1.81048 -7.431393,2.37674 l -4.065707,1.02978 0,3.69375 0,3.69374 9.393972,-0.20623 c 9.00845,-0.19787 9.49872,-0.27424 11.94597,-1.85776 1.80597,-1.16857 3.02809,-2.61221 4.18005,-4.93827 1.43205,-2.89156 1.62881,-3.91824 1.6352,-8.534 0.006,-4.16681 -0.23733,-5.75504 -1.18088,-7.71589 -1.47972,-3.07514 -3.24462,-4.91593 -5.8714,-6.12392 -0.88887,-0.40877 -1.38961,-0.63857 -1.72845,-0.61698 z m -82.310918,37.91381 0,6.17258 0,6.17292 59.730199,0 59.729859,0 0,-6.17292 0,-6.17258 -59.729859,0 -59.730199,0 z"
           id="path3425"
           inkscape:connector-curvature="0"
           inkscape:export-xdpi="42.96357"
           inkscape:export-ydpi="42.96357" />
        <path
           style="fill:#976328"
           d="m 21.164172,600.94028 0,6.17258 0,6.17292 59.730199,0 59.729859,0 0,-6.17292 0,-6.17258 -59.729859,0 -59.730199,0 z m 0,15.43213 0,34.25921 0,34.25921 27.481554,0 27.481214,0 0,-10.80253 0,-10.80252 -4.800099,0 c -5.387319,0 -5.807818,0.7434 -1.079129,1.90813 l 3.074718,0.75753 0,3.2966 c 0,3.88785 0.213809,3.82338 -6.720141,2.03167 C 53.839316,667.98178 43.72832,658.00519 41.856842,646.86266 40.097807,636.3896 46.481165,625.10161 57.619413,618.98873 l 4.766751,-2.61598 -20.610997,-3.5e-4 -20.610995,0 z m 119.460058,0 -22.29384,0.0317 c -20.712941,0.0296 -22.144417,0.0999 -20.190367,0.99201 2.089427,0.95386 2.103127,0.98353 2.103127,4.55201 l 0,3.59199 -3.550815,-2.0371 c -1.953029,-1.12043 -5.23553,-2.50228 -7.294587,-3.07064 -4.903918,-1.35362 -15.701884,-1.40116 -20.145109,-0.0888 -14.592392,4.30998 -22.524679,18.05023 -17.747952,30.74276 0.353081,0.93819 0.863903,1.70565 1.134942,1.70565 0.27104,0 0.492771,0.36433 0.492771,0.80926 0,1.20734 5.019125,6.04915 8.321308,8.02728 l 2.895375,1.73457 0,-17.35455 c 0,-16.86506 0.03557,-17.42301 1.261877,-19.78676 l 1.262217,-2.43255 10.132109,-0.005 c 5.572839,-0.003 11.630034,0.29709 13.46036,0.666 8.503856,1.71394 13.703684,8.14577 13.703684,16.95059 0,3.18709 0.0453,3.27899 1.82271,3.70124 4.78944,1.1378 9.12157,4.83354 11.54713,9.85033 1.34297,2.77768 1.49227,3.73474 1.49227,9.56787 0,5.61044 -0.17731,6.85474 -1.3211,9.25921 -2.55499,5.3711 -6.81718,9.17107 -11.70979,10.43975 -1.3821,0.35839 4.23542,0.56895 16.25602,0.6095 l 18.36766,0.0619 0,-34.25921 0,-34.25921 z m -67.862635,12.3455 0,13.78603 c 0,7.58232 0.168699,13.97114 0.374344,14.19748 0.20564,0.22634 0.962408,0.41178 1.682163,0.41178 1.245298,0 1.308838,-0.20762 1.308838,-4.28589 0,-3.24394 0.286179,-4.81955 1.17714,-6.48158 l 1.176799,-2.1957 9.759468,0 9.759467,0 0,-1.88703 c 0,-6.03988 -3.148911,-11.30401 -7.649874,-12.78824 -1.325255,-0.43701 -5.525976,-0.75685 -9.941534,-0.75685 l -7.646811,0 z m 12.339033,20.37039 0,3.70362 0,3.70395 1.822712,-0.0272 c 3.941664,-0.0586 7.609506,-2.32714 9.18536,-5.68117 l 0.798371,-1.69918 -5.903392,0 -5.903051,0 z m 18.447972,0.97806 c -0.41981,-0.0218 -0.59758,0.23578 -0.77149,0.83887 -1.44066,4.99591 -7.587875,9.48357 -14.0314,10.24305 l -3.645082,0.42947 0,2.08884 c 0,2.70623 0.376045,2.68896 8.412513,-0.38081 3.547349,-1.35502 6.525199,-2.46502 6.617709,-2.46624 0.0925,-0.002 0.0925,1.59457 0,3.54673 l -0.168117,3.54911 -3.365005,1.3473 c -1.85079,0.74097 -5.195021,1.81048 -7.431393,2.37674 l -4.065707,1.02978 0,3.64168 0,3.64168 8.030342,0 c 9.85923,0 12.85845,-0.81183 15.67545,-4.24369 2.51857,-3.0683 3.43073,-6.12575 3.43069,-11.4971 -5e-5,-6.92795 -2.65377,-11.74058 -7.61993,-13.81871 -0.47756,-0.19984 -0.8167,-0.31363 -1.06858,-0.3267 z m -82.384428,37.91109 0,6.17258 0,6.17292 59.730199,0 59.729859,0 0,-6.17292 0,-6.17258 -59.729859,0 -59.730199,0 z"
           id="path3423"
           inkscape:connector-curvature="0"
           inkscape:export-xdpi="42.96357"
           inkscape:export-ydpi="42.96357" />
        <path
           style="fill:#27654f"
           d="m 21.164172,600.94028 0,6.17258 0,6.17292 59.730199,0 59.729859,0 0,-6.17292 0,-6.17258 -59.729859,0 -59.730199,0 z m 0,15.43213 0,34.25921 0,34.25921 27.481554,0 27.481214,0 0,-5.82649 0,-5.82614 -2.663962,-0.38013 C 58.92558,670.78414 47.99338,663.55649 43.460733,653.02265 c -1.640737,-3.81306 -1.825567,-4.8059 -1.823051,-9.79861 0.0023,-4.45802 0.253109,-6.15417 1.270044,-8.58641 2.845912,-6.80667 7.802166,-12.10407 15.067313,-16.10492 l 3.850291,-2.12049 -20.330579,-0.0201 -20.330579,-0.0197 z m 119.460058,0 -22.01308,0.0317 c -20.459216,0.0296 -21.864991,0.0996 -19.910294,0.99201 l 2.103134,0.96002 0,3.82817 0,3.82783 -4.346471,-2.36279 c -5.380553,-2.92509 -10.606095,-4.16876 -17.526408,-4.17087 -12.553728,-0.004 -22.446168,5.63562 -26.730145,15.23782 -1.370272,3.07135 -1.592661,4.30199 -1.592661,8.81646 0,4.56869 0.192401,5.60618 1.488525,8.0249 1.970301,3.67681 5.162187,7.13286 8.606832,9.31944 1.542328,0.97904 2.993447,1.78253 3.224796,1.78562 0.23135,0.003 0.420625,-7.64727 0.420625,-17.00131 0,-16.50503 0.03724,-17.07913 1.261877,-19.43964 l 1.262217,-2.43255 10.132109,-0.005 c 5.572839,-0.003 11.630034,0.29709 13.46036,0.666 8.503856,1.71394 13.703684,8.14577 13.703684,16.95059 0,3.18709 0.0453,3.27899 1.82271,3.70124 4.78944,1.1378 9.12157,4.83354 11.54713,9.85033 1.34297,2.77768 1.49227,3.73474 1.49227,9.56787 0,5.61044 -0.17731,6.85474 -1.3211,9.25921 -2.55499,5.3711 -6.81718,9.17107 -11.70979,10.43975 -1.3821,0.35839 4.23542,0.56895 16.25602,0.6095 l 18.36766,0.0619 0,-34.25921 0,-34.25921 z m -67.862635,12.3455 0,13.78603 c 0,7.58232 0.168699,13.97114 0.374344,14.19748 0.20564,0.22634 0.962408,0.41178 1.682163,0.41178 1.245298,0 1.308838,-0.20762 1.308838,-4.28589 0,-3.24394 0.286179,-4.81955 1.17714,-6.48158 l 1.176799,-2.1957 9.759468,0 9.759467,0 0,-1.88703 c 0,-6.03988 -3.148911,-11.30401 -7.649874,-12.78824 -1.325255,-0.43701 -5.525976,-0.75685 -9.941534,-0.75685 l -7.646811,0 z m 12.339033,20.37039 0,3.70362 0,3.70395 1.822712,-0.0272 c 3.941664,-0.0586 7.609506,-2.32714 9.18536,-5.68117 l 0.798371,-1.69918 -5.903392,0 -5.903051,0 z m 18.447972,0.97806 c -0.41981,-0.0218 -0.59758,0.23578 -0.77149,0.83887 -1.44066,4.99591 -7.587875,9.48357 -14.0314,10.24305 l -3.645082,0.42947 0,2.07318 c 0,2.00569 0.05928,2.06083 1.822712,1.69169 1.52209,-0.31862 9.234407,-3.21252 12.928111,-4.85114 0.919359,-0.40786 0.994569,-0.0948 0.840909,3.48785 l -0.16879,3.93605 -4.206258,1.63928 c -2.313489,0.90155 -5.783902,1.99425 -7.711811,2.42813 l -3.504873,0.78884 0,3.59064 0,3.59029 8.030342,0 c 9.85923,0 12.85845,-0.81183 15.67545,-4.24369 2.51857,-3.0683 3.43072,-6.12575 3.43069,-11.4971 -5e-5,-6.92795 -2.65377,-11.74058 -7.61993,-13.81871 -0.47756,-0.19984 -0.8167,-0.31363 -1.06858,-0.3267 z m -32.282335,13.21942 c -5.268771,0 -5.60423,0.36717 -1.457897,1.5947 4.198214,1.24289 6.318572,1.12195 6.318572,-0.36005 0,-1.1396 -0.373908,-1.23465 -4.860675,-1.23465 z m -50.102093,24.69167 0,6.17258 0,6.17292 59.730199,0 59.729859,0 0,-6.17292 0,-6.17258 -59.729859,0 -59.730199,0 z"
           id="path3421"
           inkscape:connector-curvature="0"
           inkscape:export-xdpi="42.96357"
           inkscape:export-ydpi="42.96357" />
        <path
           style="fill:#004c31"
           d="m 20.815692,600.94028 0,6.17258 0,6.17292 59.7302,0 59.729858,0 0,-6.17292 0,-6.17258 -59.729858,0 -59.7302,0 z m 0,15.43213 0,34.25921 0,34.25921 27.481555,0 27.481214,0 0,-5.79212 0,-5.79245 -3.78563,-0.44308 c -4.999869,-0.585 -11.892135,-2.99126 -16.40474,-5.72745 -4.794234,-2.90696 -10.56187,-9.30078 -12.660286,-14.03515 -1.48112,-3.34164 -1.641326,-4.30713 -1.641326,-9.87654 0,-5.62414 0.149524,-6.50204 1.682503,-9.87653 2.486092,-5.47254 7.993981,-11.26631 13.697217,-14.40813 l 4.660232,-2.56697 -20.25571,0 -20.255029,0 z m 119.460058,0 -21.73266,0.0395 c -20.410538,0.0371 -21.622147,0.10026 -19.910296,1.03796 1.767566,0.9682 1.822716,1.11598 1.822716,4.88688 l 0,3.88874 -3.504879,-2.10483 c -4.566332,-2.742 -9.350668,-4.04633 -16.344163,-4.4557 -13.062961,-0.76466 -23.452857,4.62963 -28.449743,14.7709 -1.71041,3.47131 -1.895793,4.33568 -1.886009,8.78821 0.0091,4.13548 0.252034,5.44023 1.49397,8.0249 0.815665,1.69754 2.451138,4.10121 3.634533,5.34154 2.134978,2.23769 7.28458,6.07797 8.150131,6.07797 0.248074,0 0.451253,-7.78167 0.451253,-17.29261 0,-16.87498 0.03045,-17.34515 1.261878,-19.4747 l 1.262217,-2.18242 12.338352,0.22835 c 9.962012,0.18437 12.839216,0.43462 14.937313,1.29863 5.709298,2.35114 9.621067,8.24312 10.338677,15.57268 l 0.3689,3.76725 3.00053,1.04102 c 2.0043,0.69538 4.02181,2.06851 6.07695,4.13581 3.97432,3.99783 5.37795,7.8549 5.37795,14.77465 0,10.04081 -4.22003,16.61062 -12.49898,19.45835 -2.06698,0.71099 -0.0948,0.81808 15.72412,0.85419 l 18.08724,0.0412 0,-34.25921 0,-34.25921 z m -67.3018,12.21107 0,13.9562 0,13.95619 1.402426,0 c 1.356877,0 1.401879,-0.13447 1.404127,-4.16678 0.0016,-3.06424 0.296193,-4.69754 1.113502,-6.17292 l 1.111457,-2.00614 8.841307,-0.0711 c 4.862863,-0.0391 9.315288,-0.0156 9.89389,0.0521 0.962183,0.11253 1.016694,-0.18439 0.64285,-3.47765 -0.474615,-4.18093 -1.258659,-6.06007 -3.46778,-8.31042 -2.912301,-2.96664 -3.966645,-3.25935 -12.669134,-3.51576 l -8.272645,-0.24367 z m 11.778199,20.50482 0,3.70362 c 0,4.17974 0.305667,4.37318 4.76709,3.01312 2.863147,-0.87283 4.781966,-2.3945 6.060617,-4.80589 l 1.013108,-1.91085 -5.920408,0 -5.920407,0 z m 19.240901,1.48478 c -0.85599,-0.007 -1.47724,0.64303 -2.11504,1.94761 -2.38474,4.87779 -9.149694,8.91345 -14.94174,8.91345 -2.053105,0 -2.184121,0.11101 -2.184121,1.85164 0,2.53439 1.228348,2.45048 9.042089,-0.61733 3.458905,-1.35802 6.372702,-2.46896 6.475112,-2.46896 0.10242,0 0.18616,1.68219 0.18616,3.73832 l 0,3.73867 -2.563575,1.24793 c -1.410028,0.68649 -4.880103,1.89159 -7.711471,2.67791 l -5.147899,1.42965 -0.168113,3.4603 -0.168455,3.46029 7.571602,0 c 10.027061,0 12.673361,-0.65887 15.750661,-3.92108 2.85592,-3.02752 3.64673,-5.64578 3.65121,-12.08788 0.004,-5.42217 -1.29425,-8.97618 -4.15487,-11.37765 -1.57511,-1.32229 -2.66557,-1.98601 -3.52155,-1.99287 z M 71.759036,663.9031 c -4.423397,0 -4.726257,0.37164 -0.965464,1.18463 3.836841,0.82943 4.984889,0.76987 4.984889,-0.25864 0,-0.73691 -0.820523,-0.92599 -4.019425,-0.92599 z m -50.943344,24.06857 0,6.17564 0,6.17564 59.750279,0 59.750279,0 -0.16029,-6.01842 -0.16063,-6.01875 -59.589987,-0.15689 -59.589651,-0.15722 z"
           id="path3419"
           inkscape:connector-curvature="0"
           inkscape:export-xdpi="42.96357"
           inkscape:export-ydpi="42.96357" />
      </g>
    </g>
  </g>
</svg>
