<?xml version="1.0" encoding="iso-8859-1"?>
<!-- Generator: Adobe Illustrator 19.0.0, SVG Export Plug-In . SVG Version: 6.00 Build 0)  -->
<svg version="1.1" id="Capa_1" xmlns="http://www.w3.org/2000/svg" xmlns:xlink="http://www.w3.org/1999/xlink" x="0px" y="0px"
	 viewBox="0 0 512.001 512.001" style="enable-background:new 0 0 512.001 512.001;" xml:space="preserve">
<path style="fill:#D9DDE2;" d="M488.561,471.567L288.539,271.545c-4.686-4.688-12.286-4.688-16.973,0
	c-4.688,4.688-4.688,12.285,0,16.973l200.022,200.022c4.99,4.991,13.437,4.514,17.853-0.982
	C493.226,482.844,492.833,475.837,488.561,471.567z"/>
<path style="fill:#3CBDE8;" d="M502.705,457.421l-88.011-88.01c-12.478-12.477-32.78-12.476-45.26,0
	c-12.477,12.478-12.477,32.782,0,45.26l88.011,88.01c10.088,10.088,26.175,12.272,38.559,5.143
	c12.898-7.426,19.104-23.778,14.417-37.897C508.864,465.238,506.197,460.914,502.705,457.421z"/>
<path style="fill:#2C9DD4;" d="M473.432,486.736l-88.011-88.01c-9.678-9.679-11.843-24.064-6.509-35.854
	c-3.438,1.545-6.659,3.72-9.479,6.54c-12.477,12.478-12.477,32.782,0,45.26l88.011,88.01c10.088,10.088,26.175,12.272,38.559,5.143
	c5.87-3.379,10.332-8.532,13.033-14.472C497.138,498.602,482.737,496.04,473.432,486.736z"/>
<path style="fill:#69788D;" d="M168.041,0C75.395,0,0.023,75.372,0.023,168.018s75.372,168.018,168.018,168.018
	s168.018-75.372,168.018-168.018S260.687,0,168.041,0z"/>
<path style="fill:#56677E;" d="M168.041,24.003c-79.411,0-144.016,64.605-144.016,144.016S88.63,312.034,168.041,312.034
	s144.016-64.605,144.016-144.016S247.452,24.003,168.041,24.003z"/>
<path style="fill:#C7CCD4;" d="M168.041,37.651c-71.885,0-130.367,58.482-130.367,130.367s58.482,130.367,130.367,130.367
	c71.884,0,130.367-58.482,130.367-130.367S239.926,37.651,168.041,37.651z"/>
<path style="fill:#ECEEF1;" d="M168.041,56.006c-61.764,0-112.012,50.248-112.012,112.012s50.248,112.012,112.012,112.012
	s112.012-50.248,112.012-112.012S229.805,56.006,168.041,56.006z"/>
<path style="fill:#FFDB66;" d="M232.048,128.014h-56.006v-16.002c0-4.418-3.582-8.001-8.001-8.001h-64.007
	c-4.418,0-8.001,3.582-8.001,8.001v112.012c0,4.418,3.582,8.001,8.001,8.001h128.014c4.418,0,8.001-3.582,8.001-8.001v-88.01
	C240.049,131.596,236.467,128.014,232.048,128.014z"/>
<path style="fill:#F7C14D;" d="M112.035,216.024V104.011h-8.001c-4.418,0-8.001,3.582-8.001,8.001v112.012
	c0,4.418,3.582,8.001,8.001,8.001h128.014c4.418,0,8.001-3.582,8.001-8.001v-8.001H112.035z"/>
<g>
	<path style="fill:#F09B24;" d="M169.041,184.02h-1c-4.418,0-8.001-3.582-8.001-8.001c0-4.418,3.582-8.001,8.001-8.001h1
		c4.418,0,8.001,3.582,8.001,8.001C177.042,180.438,173.461,184.02,169.041,184.02z"/>
	<path style="fill:#F09B24;" d="M201.045,184.02h-1c-4.418,0-8.001-3.582-8.001-8.001c0-4.418,3.582-8.001,8.001-8.001h1
		c4.418,0,8.001,3.582,8.001,8.001C209.046,180.438,205.464,184.02,201.045,184.02z"/>
	<path style="fill:#F09B24;" d="M137.038,184.02h-1c-4.418,0-8.001-3.582-8.001-8.001c0-4.418,3.582-8.001,8.001-8.001h1
		c4.418,0,8.001,3.582,8.001,8.001C145.039,180.438,141.457,184.02,137.038,184.02z"/>
</g>
<g>
</g>
<g>
</g>
<g>
</g>
<g>
</g>
<g>
</g>
<g>
</g>
<g>
</g>
<g>
</g>
<g>
</g>
<g>
</g>
<g>
</g>
<g>
</g>
<g>
</g>
<g>
</g>
<g>
</g>
</svg>
